{"asset":{"version":"2.0","generator":"THREE.GLTFExporter"},"scenes":[{"nodes":[0],"name":"AuxScene"}],"scene":0,"nodes":[{"mesh":0}],"bufferViews":[{"buffer":0,"byteOffset":0,"byteLength":5328,"target":34962,"byteStride":12},{"buffer":0,"byteOffset":5328,"byteLength":5328,"target":34962,"byteStride":12}],"buffers":[{"byteLength":10656,"uri":"data:application/octet-stream;base64,"}],"accessors":[{"bufferView":0,"componentType":5126,"count":444,"max":[14.700000762939453,1.2000000476837158,14.736000061035156],"min":[-14.699999809265137,0.20000000298023224,-14.763999938964844],"type":"VEC3"},{"bufferView":1,"componentType":5126,"count":444,"max":[0,1,0],"min":[0,0.9284766912460327,-0.37139075994491577],"type":"VEC3"}],"materials":[{"pbrMetallicRoughness":{"baseColorFactor":[0.5019607843137255,0.5019607843137255,0.5019607843137255,1],"metallicFactor":0,"roughnessFactor":1}}],"meshes":[{"primitives":[{"mode":4,"attributes":{"POSITION":0,"NORMAL":1},"material":0}]}]}